#BigTree 2 Branch 2DARK PINE.obj
#Thursday, March 11, 2021
#12:48:53 PM
#-------

#BigTree 2 Branch 2DARK PINE
#-------
g BigTree 2 Branch 2DARK PINE
v 0 -1.907349E-06 -0.2684593
v 0 0.2466831 -3.814697E-06
v 0 -1.907349E-06 0.2684555
v 0 -0.2511177 -3.814697E-06
v 0 -1.907349E-06 -0.2684593
v -0.1765823 -0.03588104 -0.2279167
v -0.169632 0.1911983 0.02044678
v -0.1591034 -0.03619003 0.2667351
v -0.1659622 -0.267477 0.02006149
v -0.1765823 -0.03588104 -0.2279167
v -0.9295731 -0.226572 -0.128746
v -0.8940277 -0.02056503 0.09576797
v -0.8364334 -0.2277679 0.3144989
v -0.8714371 -0.4341145 0.09250259
v -0.9295731 -0.226572 -0.128746
v -2.52301 -0.3819218 0.1346207
v -2.445404 -0.1835289 0.3424606
v -2.341476 -0.381918 0.5463295
v -2.420113 -0.5698776 0.3378296
v -2.52301 -0.3819218 0.1346207
v -3.773323 -0.2913532 0.4368324
v -3.687645 -0.123661 0.6104622
v -3.600807 -0.290802 0.7852135
v -3.686806 -0.4643211 0.6109085
v -3.773323 -0.2913513 0.4368324
v -5.324593 -0.1164074 0.8303299
v -5.239464 0.01659966 0.9654236
v -5.178871 -0.1157436 1.108665
v -5.265434 -0.2535229 0.9718246
v -5.324593 -0.1164074 0.8303299
v -6.796944 0.07057762 1.212067
v -6.721626 0.1700344 1.311142
v -6.685341 0.07113457 1.419792
v -6.761574 -0.03235817 1.320698
v -6.796944 0.07057762 1.212067
v -7.619217 0.1752338 1.430622
v -7.557045 0.2488441 1.505936
v -7.533348 0.1756477 1.588146
v -7.595009 0.09974289 1.514992
v -7.619217 0.1752338 1.430622
v -7.791695 0.1970997 1.505913
v -7.753113 0.2430954 1.551022
v -7.740875 0.1973324 1.598618
v -7.776947 0.1538334 1.556717
v -7.791695 0.1970997 1.505913
v -7.777473 0.197422 1.536537
v -7.763069 0.2146397 1.553371
v -7.758484 0.1975098 1.571182
v -7.771988 0.1812344 1.555508
v -7.777473 0.197422 1.536537
v -7.767975 0.197506 1.554543
v -7.767975 0.197506 1.554543
v -7.767975 0.197506 1.554543
v -7.767975 0.197506 1.554543
v -7.767975 0.197506 1.554543
v -5.620369 0.4477291 1.457138
v -3.393845 0.2976303 1.085026
v -4.036644 -0.9470444 0.06654739
v -6.263168 -0.7969437 0.4386597
v -5.620369 0.4477291 1.457138
v -3.393845 0.2976303 1.085026
v -4.036644 -0.9470444 0.06654739
v -6.263168 -0.7969437 0.4386597
v -5.994835 -0.8378296 0.3230019
v -3.839211 -0.9855576 0.332756
v -3.569443 0.4557514 0.7869949
v -5.725067 0.6034813 0.7772369
v -5.994835 -0.8378296 0.3230019
v -3.839211 -0.9855576 0.332756
v -3.569443 0.4557514 0.7869949
v -5.725067 0.6034813 0.7772369
v -6.906204 0.4948883 2.188446
v -4.730766 0.1450005 1.699875
v -5.798882 -0.385458 0.1618576
v -7.974327 -0.03557014 0.6504211
v -6.906204 0.4948883 2.188446
v -4.730766 0.1450005 1.699875
v -5.798882 -0.385458 0.1618576
v -7.974327 -0.03557014 0.6504211
v -8.090706 0.02770424 0.3155518
v -5.636055 -0.5158157 0.1454506
v -4.819458 0.3653297 1.789124
v -7.274109 0.9088478 1.959225
v -8.090706 0.02770424 0.3155518
v -5.636055 -0.5158157 0.1454506
v -4.819458 0.3653297 1.789124
v -7.274109 0.9088478 1.959225
v -7.929497 0.1362934 2.181232
v -6.190216 0.1720333 1.844238
v -6.756714 -0.1705837 0.5866737
v -8.495987 -0.2063198 0.9236641
v -7.929497 0.1362934 2.181232
v -6.190216 0.1720333 1.844238
v -6.756714 -0.1705837 0.5866737
v -8.495987 -0.2063198 0.9236641
v -7.961807 0.7211819 1.038826
v -6.679314 0.1751595 0.6851768
v -6.148445 -0.03609276 1.862663
v -7.430939 0.5099335 2.216312
v -7.961807 0.7211819 1.038826
v -6.679314 0.1751595 0.6851768
v -6.148445 -0.03609276 1.862663
v -7.430939 0.5099335 2.216312
v -8.931419 0.1828957 2.471611
v -7.174629 -0.1849632 2.048721
v -7.481949 0.5274448 0.8014183
v -9.238739 0.8953018 1.224304
v -8.931419 0.1828957 2.471611
v -7.174629 -0.1849632 2.048721
v -7.481949 0.5274448 0.8014183
v -9.238739 0.8953018 1.224304
v -8.882187 0.960825 1.650814
v -7.265976 0.6985912 1.182018
v -7.380638 -0.4505711 1.760941
v -8.996849 -0.1883354 2.229736
v -8.882187 0.960825 1.650814
v -7.265976 0.6985912 1.182018
v -7.380638 -0.4505711 1.760941
v -8.996849 -0.1883354 2.229736
v -8.104607 -0.3471222 2.327995
v -7.905724 -0.2370663 1.477753
v -7.618355 0.6714859 1.641674
v -7.817223 0.56143 2.49192
v -8.104607 -0.3471222 2.327995
v -7.905724 -0.2370663 1.477753
v -7.618355 0.6714859 1.641674
v -7.817223 0.56143 2.49192

vn -0.009775826 -2.884071E-08 0.9999523
vn -0.009775707 -0.9999524 -4.37093E-08
vn -0.009775826 2.650998E-08 -0.9999523
vn -0.009775945 0.9999524 1.311279E-07
vn -0.009775826 -2.884071E-08 0.9999523
vn 0.02219079 -0.0006719946 0.9997535
vn 0.004202934 -0.999991 -0.0007651097
vn -0.02337934 0.0006662718 -0.9997265
vn -0.005391472 0.9999853 0.0007922781
vn 0.02219079 -0.0006719946 0.9997535
vn 0.1459884 -0.002478747 0.9892832
vn 0.04446953 -0.998971 -0.008923405
vn -0.1225121 0.003270971 -0.9924616
vn -0.02099325 0.9997633 0.005745082
vn 0.1459884 -0.002478747 0.9892832
vn 0.3066835 0.001417993 0.9518105
vn 0.07256678 -0.9971504 -0.02062861
vn -0.2399125 0.001413656 -0.9707935
vn -0.00579585 0.999982 0.001645645
vn 0.3066835 0.001417993 0.9518105
vn 0.3341344 0.001646652 0.942524
vn 0.0315907 -0.9994658 -0.008393374
vn -0.273921 -0.00158072 -0.9617509
vn 0.02862272 0.9995317 -0.01083346
vn 0.3341344 0.001646652 0.942524
vn 0.350914 0.0004023894 0.9364076
vn -0.02626676 -0.9995897 0.01143884
vn -0.288423 -0.004469812 -0.9574927
vn 0.08875783 0.9955222 -0.03252383
vn 0.350914 0.0004023894 0.9364076
vn 0.3639762 -0.002204154 0.9314057
vn -0.08045315 -0.9962842 0.03074538
vn -0.2901776 -0.007652689 -0.9569423
vn 0.1542518 0.9864274 -0.05628184
vn 0.3639762 -0.002204154 0.9314057
vn 0.3818111 -0.006089978 0.9242204
vn -0.0997421 -0.9942929 0.03786176
vn -0.2803746 -0.01140686 -0.9598229
vn 0.2011786 0.976796 -0.07346423
vn 0.3818111 -0.006089978 0.9242204
vn 0.8929995 -0.1171695 0.4345382
vn 0.5458325 -0.8159006 -0.1907184
vn 0.4217657 -0.1207919 -0.8986229
vn 0.7689326 0.5779392 -0.2733663
vn 0.8929995 -0.1171695 0.4345382
vn 0.9827423 -0.1510483 0.1067811
vn 0.7726155 -0.5738639 -0.271562
vn 0.6975636 -0.1532404 -0.6999447
vn 0.9076904 0.2695751 -0.3216016
vn 0.9827423 -0.1510483 0.1067811
vn 0.9874586 -0.157519 0.01065909
vn 0.8210719 -0.4923093 -0.2889165
vn 0.7616475 -0.1592537 -0.6281175
vn 0.9280342 0.1755366 -0.3285419
vn 0.9874585 -0.157519 0.0106591
vn 0.187107 0.07418769 -0.9795341
vn -0.2349004 0.1311422 -0.9631322
vn 0.02529247 0.9490631 -0.3140696
vn 0.4154154 0.822507 -0.3884747
vn 0.3874863 -0.8965537 0.2145836
vn -0.01450943 -0.936547 0.350242
vn 0.2401583 -0.09185825 0.9663779
vn 0.6116149 -0.1279852 0.7807349
vn 0.4346009 0.1898368 0.8803886
vn 0.02303229 0.2607946 0.9651196
vn -0.09135456 -0.7597905 0.643718
vn 0.3216132 -0.7400753 0.5906383
vn 0.4942032 0.6198356 -0.6095632
vn 0.0885869 0.7337373 -0.6736335
vn -0.02744347 -0.298705 -0.9539509
vn 0.3799722 -0.3190463 -0.8682343
vn 0.283111 0.4557061 -0.8439077
vn -0.1078378 0.6136633 -0.782169
vn 0.3062905 0.9390289 0.1562401
vn 0.6528881 0.7573485 0.01267535
vn 0.112335 -0.964025 -0.2409086
vn -0.2956691 -0.9478561 -0.1189485
vn 0.1231682 -0.5833424 0.8028333
vn 0.4856743 -0.632768 0.6030964
vn 0.3295307 -0.5408887 0.7738534
vn -0.06498422 -0.4370739 0.8970749
vn -0.3475724 -0.9375678 -0.01266497
vn 0.0631308 -0.9966257 -0.0524593
vn 0.7011347 0.7099471 -0.06622326
vn 0.3437319 0.9386827 -0.02689991
vn 0.05089695 0.4036978 -0.9134756
vn 0.4269835 0.2281186 -0.8750126
vn 0.1873331 0.6318501 -0.7521116
vn -0.2322943 0.6799327 -0.6955078
vn 0.05889949 0.9507145 0.3044223
vn 0.4440042 0.8814934 0.1607169
vn 0.3552715 -0.8611941 -0.3634929
vn -0.0475839 -0.9622216 -0.2680778
vn 0.2389791 -0.6502702 0.7211365
vn 0.6084395 -0.580407 0.5412293
vn 0.003579023 -0.9481099 0.3179231
vn -0.3486379 -0.7924598 0.500459
vn -0.6316077 -0.5790042 -0.5155832
vn -0.2628638 -0.7515627 -0.605026
vn 0.8976595 0.3202739 0.302708
vn 0.6347342 0.6025972 0.4837243
vn 0.3271109 0.781078 -0.5318983
vn 0.6125669 0.4903637 -0.6199237
vn 0.6446657 0.7343099 -0.2125918
vn 0.3012916 0.9500347 -0.08159545
vn 0.4363131 0.3750308 0.8179137
vn 0.7614076 0.2156906 0.6113397
vn -0.03033605 -0.5017369 -0.8644882
vn -0.4411228 -0.4094559 -0.7985967
vn -0.2874884 -0.9503768 0.1188886
vn 0.1004858 -0.9945733 -0.02695826
vn -0.01520238 -0.802551 -0.5963899
vn -0.4221899 -0.7729867 -0.4735478
vn -0.3541094 0.2074094 -0.9119144
vn 0.03761575 0.09171885 -0.9950742
vn 0.7012373 -0.2538943 0.6661863
vn 0.3658003 -0.1695358 0.9151218
vn 0.4141255 0.7957318 0.4419404
vn 0.739111 0.6289312 0.2411655
vn 0.9026936 0.3577288 -0.2391118
vn 0.9251917 0.3310162 0.1856038
vn 0.7065907 -0.7075766 0.008076805
vn 0.7054339 -0.5905212 -0.3919796
vn -0.605428 0.6745245 -0.4224616
vn -0.733546 0.6794503 -0.01605684
vn -0.9105618 -0.3678785 -0.1885282
vn -0.7712296 -0.280334 -0.5715049

vt 0.484375 0
vt 0.3671875 0
vt 0.25 0
vt 0.1328125 0
vt 0.015625 0
vt 0.484375 0.1442259
vt 0.3671875 0.1442259
vt 0.25 0.1442259
vt 0.1328125 0.1442259
vt 0.015625 0.1442259
vt 0.484375 0.5795069
vt 0.3671875 0.5795069
vt 0.25 0.5795069
vt 0.1328125 0.5795069
vt 0.015625 0.5795069
vt 0.484375 1.184898
vt 0.3671875 1.184898
vt 0.25 1.184898
vt 0.1328125 1.184898
vt 0.015625 1.184898
vt 0.484375 1.935925
vt 0.3671875 1.935925
vt 0.25 1.935925
vt 0.1328125 1.935925
vt 0.015625 1.935925
vt 0.484375 2.830327
vt 0.3671875 2.830327
vt 0.25 2.830327
vt 0.1328125 2.830327
vt 0.015625 2.830327
vt 0.484375 3.975196
vt 0.3671875 3.975196
vt 0.25 3.975196
vt 0.1328125 3.975196
vt 0.015625 3.975196
vt 0.484375 5.116372
vt 0.3671875 5.116372
vt 0.25 5.116372
vt 0.1328125 5.116372
vt 0.015625 5.116372
vt 0.484375 5.661819
vt 0.3671875 5.661819
vt 0.25 5.661819
vt 0.1328125 5.661819
vt 0.015625 5.661819
vt 0.484375 5.676662
vt 0.3671875 5.676662
vt 0.25 5.676662
vt 0.1328125 5.676662
vt 0.015625 5.676662
vt 0.484375 5.684458
vt 0.3671875 5.684458
vt 0.25 5.684458
vt 0.1328125 5.684458
vt 0.015625 5.684458
vt 0.5353088 0.8149248
vt 0.5353088 0.015625
vt 0.984375 0.015625
vt 0.984375 0.8149248
vt 0.5353088 0.8149248
vt 0.5353088 0.015625
vt 0.984375 0.015625
vt 0.984375 0.8149248
vt 0.5353088 0.8149248
vt 0.5353088 0.015625
vt 0.984375 0.015625
vt 0.984375 0.8149248
vt 0.5353088 0.8149248
vt 0.5353088 0.015625
vt 0.984375 0.015625
vt 0.984375 0.8149248
vt 0.5353088 0.8149248
vt 0.5353088 0.015625
vt 0.984375 0.015625
vt 0.984375 0.8149248
vt 0.5353088 0.8149248
vt 0.5353088 0.015625
vt 0.984375 0.015625
vt 0.984375 0.8149248
vt 0.5353088 0.8149248
vt 0.5353088 0.015625
vt 0.984375 0.015625
vt 0.984375 0.8149248
vt 0.5353088 0.8149248
vt 0.5353088 0.015625
vt 0.984375 0.015625
vt 0.984375 0.8149248
vt 0.5353088 0.8149248
vt 0.5353088 0.015625
vt 0.984375 0.015625
vt 0.984375 0.8149248
vt 0.5353088 0.8149248
vt 0.5353088 0.015625
vt 0.984375 0.015625
vt 0.984375 0.8149248
vt 0.5353088 0.8149248
vt 0.5353088 0.015625
vt 0.984375 0.015625
vt 0.984375 0.8149248
vt 0.5353088 0.8149248
vt 0.5353088 0.015625
vt 0.984375 0.015625
vt 0.984375 0.8149248
vt 0.5353088 0.8149248
vt 0.5353088 0.015625
vt 0.984375 0.015625
vt 0.984375 0.8149248
vt 0.5353088 0.8149248
vt 0.5353088 0.015625
vt 0.984375 0.015625
vt 0.984375 0.8149248
vt 0.5353088 0.8149248
vt 0.5353088 0.015625
vt 0.984375 0.015625
vt 0.984375 0.8149248
vt 0.5353088 0.8149248
vt 0.5353088 0.015625
vt 0.984375 0.015625
vt 0.984375 0.8149248
vt 0.5353088 0.8149248
vt 0.5353088 0.015625
vt 0.984375 0.015625
vt 0.984375 0.8149248
vt 0.5353088 0.8149248
vt 0.5353088 0.015625
vt 0.984375 0.015625
vt 0.984375 0.8149248

usemtl Optimized Bark Material
usemap Optimized Bark Material
f 6/6/6 1/1/1 7/7/7
f 1/1/1 2/2/2 7/7/7
f 7/7/7 2/2/2 8/8/8
f 2/2/2 3/3/3 8/8/8
f 8/8/8 3/3/3 9/9/9
f 3/3/3 4/4/4 9/9/9
f 9/9/9 4/4/4 10/10/10
f 4/4/4 5/5/5 10/10/10
f 11/11/11 6/6/6 12/12/12
f 6/6/6 7/7/7 12/12/12
f 12/12/12 7/7/7 13/13/13
f 7/7/7 8/8/8 13/13/13
f 13/13/13 8/8/8 14/14/14
f 8/8/8 9/9/9 14/14/14
f 14/14/14 9/9/9 15/15/15
f 9/9/9 10/10/10 15/15/15
f 16/16/16 11/11/11 17/17/17
f 11/11/11 12/12/12 17/17/17
f 17/17/17 12/12/12 18/18/18
f 12/12/12 13/13/13 18/18/18
f 18/18/18 13/13/13 19/19/19
f 13/13/13 14/14/14 19/19/19
f 19/19/19 14/14/14 20/20/20
f 14/14/14 15/15/15 20/20/20
f 21/21/21 16/16/16 22/22/22
f 16/16/16 17/17/17 22/22/22
f 22/22/22 17/17/17 23/23/23
f 17/17/17 18/18/18 23/23/23
f 23/23/23 18/18/18 24/24/24
f 18/18/18 19/19/19 24/24/24
f 24/24/24 19/19/19 25/25/25
f 19/19/19 20/20/20 25/25/25
f 26/26/26 21/21/21 27/27/27
f 21/21/21 22/22/22 27/27/27
f 27/27/27 22/22/22 28/28/28
f 22/22/22 23/23/23 28/28/28
f 28/28/28 23/23/23 29/29/29
f 23/23/23 24/24/24 29/29/29
f 29/29/29 24/24/24 30/30/30
f 24/24/24 25/25/25 30/30/30
f 31/31/31 26/26/26 32/32/32
f 26/26/26 27/27/27 32/32/32
f 32/32/32 27/27/27 33/33/33
f 27/27/27 28/28/28 33/33/33
f 33/33/33 28/28/28 34/34/34
f 28/28/28 29/29/29 34/34/34
f 34/34/34 29/29/29 35/35/35
f 29/29/29 30/30/30 35/35/35
f 36/36/36 31/31/31 37/37/37
f 31/31/31 32/32/32 37/37/37
f 37/37/37 32/32/32 38/38/38
f 32/32/32 33/33/33 38/38/38
f 38/38/38 33/33/33 39/39/39
f 33/33/33 34/34/34 39/39/39
f 39/39/39 34/34/34 40/40/40
f 34/34/34 35/35/35 40/40/40
f 41/41/41 36/36/36 42/42/42
f 36/36/36 37/37/37 42/42/42
f 42/42/42 37/37/37 43/43/43
f 37/37/37 38/38/38 43/43/43
f 43/43/43 38/38/38 44/44/44
f 38/38/38 39/39/39 44/44/44
f 44/44/44 39/39/39 45/45/45
f 39/39/39 40/40/40 45/45/45
f 46/46/46 41/41/41 47/47/47
f 41/41/41 42/42/42 47/47/47
f 47/47/47 42/42/42 48/48/48
f 42/42/42 43/43/43 48/48/48
f 48/48/48 43/43/43 49/49/49
f 43/43/43 44/44/44 49/49/49
f 49/49/49 44/44/44 50/50/50
f 44/44/44 45/45/45 50/50/50
f 51/51/51 46/46/46 52/52/52
f 46/46/46 47/47/47 52/52/52
f 52/52/52 47/47/47 53/53/53
f 47/47/47 48/48/48 53/53/53
f 53/53/53 48/48/48 54/54/54
f 48/48/48 49/49/49 54/54/54
f 54/54/54 49/49/49 55/55/55
f 49/49/49 50/50/50 55/55/55

usemtl Optimized Leaf Material
usemap Optimized Leaf Material
f 56/56/56 57/57/57 58/58/58
f 56/56/56 58/58/58 59/59/59
f 60/60/60 62/62/62 61/61/61
f 60/60/60 63/63/63 62/62/62
f 64/64/64 65/65/65 66/66/66
f 64/64/64 66/66/66 67/67/67
f 68/68/68 70/70/70 69/69/69
f 68/68/68 71/71/71 70/70/70
f 72/72/72 73/73/73 74/74/74
f 72/72/72 74/74/74 75/75/75
f 76/76/76 78/78/78 77/77/77
f 76/76/76 79/79/79 78/78/78
f 80/80/80 81/81/81 82/82/82
f 80/80/80 82/82/82 83/83/83
f 84/84/84 86/86/86 85/85/85
f 84/84/84 87/87/87 86/86/86
f 88/88/88 89/89/89 90/90/90
f 88/88/88 90/90/90 91/91/91
f 92/92/92 94/94/94 93/93/93
f 92/92/92 95/95/95 94/94/94
f 96/96/96 97/97/97 98/98/98
f 96/96/96 98/98/98 99/99/99
f 100/100/100 102/102/102 101/101/101
f 100/100/100 103/103/103 102/102/102
f 104/104/104 105/105/105 106/106/106
f 104/104/104 106/106/106 107/107/107
f 108/108/108 110/110/110 109/109/109
f 108/108/108 111/111/111 110/110/110
f 112/112/112 113/113/113 114/114/114
f 112/112/112 114/114/114 115/115/115
f 116/116/116 118/118/118 117/117/117
f 116/116/116 119/119/119 118/118/118
f 120/120/120 121/121/121 122/122/122
f 120/120/120 122/122/122 123/123/123
f 124/124/124 126/126/126 125/125/125
f 124/124/124 127/127/127 126/126/126
