#BRANCH PINE COLUMN CHOP.obj
#Thursday, March 11, 2021
#12:27:02 PM
#-------

#BRANCH PINE COLUMN CHOP
#-------
g BRANCH PINE COLUMN CHOP
#BRANCH PINE COLUMN MESH 1
#-------
g BRANCH PINE COLUMN MESH 1
v 0.1953426 -2.468611 -0.40295
v 0.7614563 -2.309334 0.2357121
v 0.1928715 -2.273153 0.890804
v -0.4969236 -2.445848 0.2539328
v 0.1953427 -2.468611 -0.40295
v 0.1151997 -1.463581 -0.3682341
v 0.5951887 -1.335403 0.1630423
v 0.1129029 -1.307721 0.6486443
v -0.371117 -1.427464 0.1748726
v 0.1151998 -1.463581 -0.3682341
v 0.07000531 -0.839911 -0.3212714
v 0.5051222 -0.7338084 0.1135204
v 0.06786591 -0.7037591 0.5558029
v -0.2037398 -0.7953706 0.1211263
v 0.07000539 -0.839911 -0.3212714
v 0.04575998 -0.3684716 -0.3784117
v 0.4939757 -0.2621608 0.06328684
v 0.04337169 -0.2217302 0.5487835
v -0.2464507 -0.3210588 0.07016748
v 0.04576005 -0.3684716 -0.3784117
v 0.07907248 0.1529176 -0.3647743
v 0.3776424 0.2267227 -0.05133706
v 0.07734214 0.2656984 0.2990265
v -0.2518037 0.1841793 -0.04742423
v 0.07907252 0.1529176 -0.3647743
v 0.1227682 0.3695242 -0.314752
v 0.2774762 0.4124002 -0.12839
v 0.1219151 0.4353819 0.0534355
v -0.1105822 0.3888099 -0.1268475
v 0.1227682 0.3695242 -0.314752
v 0.1292469 0.4232492 -0.2334357
v 0.2054435 0.4445059 -0.1410993
v 0.1288264 0.4570847 -0.04581463
v 0.005740136 0.4325981 -0.1403863
v 0.1292469 0.4232492 -0.2334357
v 0.1305766 0.4517584 -0.1443566
v 0.1305766 0.4517584 -0.1443566
v 0.1305766 0.4517584 -0.1443566
v 0.1305766 0.4517584 -0.1443566
v 0.1305766 0.4517584 -0.1443566

vn -0.004495635 0.1729005 0.984929
vn -0.9963861 -0.08424785 0.01082485
vn -0.0007195288 -0.1257787 -0.992058
vn 0.9911709 0.1313696 -0.01795378
vn -0.004495635 0.1729005 0.984929
vn 0.002283674 0.09549569 0.9954273
vn -0.9902074 -0.1383002 0.0190369
vn 0.007264668 -0.2117125 -0.977305
vn 0.9997557 0.02208341 -0.0009145709
vn 0.002283674 0.09549569 0.9954273
vn 0.002312141 0.07593661 0.9971099
vn -0.9893894 -0.143892 0.02009293
vn 0.008102434 -0.2387102 -0.9710571
vn 0.999804 -0.01888154 0.005960061
vn 0.002312141 0.07593661 0.9971099
vn 0.003330425 0.02355869 0.9997169
vn -0.9822117 -0.1857526 0.02750079
vn 0.01005417 -0.3011724 -0.9535167
vn 0.9955963 -0.09186115 0.0186995
vn 0.003330425 0.02355869 0.9997169
vn -0.002541528 0.08629277 0.9962666
vn -0.9923282 -0.1222412 0.01849097
vn 0.006970542 -0.2865448 -0.9580415
vn 0.9967572 -0.07801087 0.0197342
vn -0.002541528 0.08629277 0.9962666
vn -0.001288519 -0.3196389 0.9475386
vn -0.858251 -0.5032575 0.1006839
vn 0.00824123 -0.6733611 -0.7392679
vn 0.8652037 -0.4897425 0.1075869
vn -0.001288519 -0.3196389 0.9475386
vn 0.000542421 -0.7067637 0.7074496
vn -0.541221 -0.8230928 0.1720408
vn 0.006669405 -0.9335634 -0.3583504
vn 0.5484329 -0.8172342 0.1770583
vn 0.000542421 -0.7067637 0.7074496
vn 0.002029534 -0.8929082 0.4502343
vn -0.2502958 -0.9471042 0.2008623
vn 0.004894271 -0.9989254 -0.04608768
vn 0.2572196 -0.9447294 0.2032843
vn 0.002029489 -0.8929082 0.4502343

vt 0.484375 0
vt 0.3671875 0
vt 0.25 0
vt 0.1328125 0
vt 0.015625 0
vt 0.484375 0.5890036
vt 0.3671875 0.5890036
vt 0.25 0.5890036
vt 0.1328125 0.5890036
vt 0.015625 0.5890036
vt 0.484375 0.9302821
vt 0.3671875 0.9302821
vt 0.25 0.9302821
vt 0.1328125 0.9302821
vt 0.015625 0.9302821
vt 0.484375 1.352664
vt 0.3671875 1.352664
vt 0.25 1.352664
vt 0.1328125 1.352664
vt 0.015625 1.352664
vt 0.484375 1.752692
vt 0.3671875 1.752692
vt 0.25 1.752692
vt 0.1328125 1.752692
vt 0.015625 1.752692
vt 0.484375 2.152727
vt 0.3671875 2.152727
vt 0.25 2.152727
vt 0.1328125 2.152727
vt 0.015625 2.152727
vt 0.484375 2.309767
vt 0.3671875 2.309767
vt 0.25 2.309767
vt 0.1328125 2.309767
vt 0.015625 2.309767
vt 0.484375 2.460494
vt 0.3671875 2.460494
vt 0.25 2.460494
vt 0.1328125 2.460494
vt 0.015625 2.460494

usemtl Optimized Bark Material
usemap Optimized Bark Material
f 6/6/6 1/1/1 7/7/7
f 1/1/1 2/2/2 7/7/7
f 7/7/7 2/2/2 8/8/8
f 2/2/2 3/3/3 8/8/8
f 8/8/8 3/3/3 9/9/9
f 3/3/3 4/4/4 9/9/9
f 9/9/9 4/4/4 10/10/10
f 4/4/4 5/5/5 10/10/10
f 11/11/11 6/6/6 12/12/12
f 6/6/6 7/7/7 12/12/12
f 12/12/12 7/7/7 13/13/13
f 7/7/7 8/8/8 13/13/13
f 13/13/13 8/8/8 14/14/14
f 8/8/8 9/9/9 14/14/14
f 14/14/14 9/9/9 15/15/15
f 9/9/9 10/10/10 15/15/15
f 16/16/16 11/11/11 17/17/17
f 11/11/11 12/12/12 17/17/17
f 17/17/17 12/12/12 18/18/18
f 12/12/12 13/13/13 18/18/18
f 18/18/18 13/13/13 19/19/19
f 13/13/13 14/14/14 19/19/19
f 19/19/19 14/14/14 20/20/20
f 14/14/14 15/15/15 20/20/20
f 21/21/21 16/16/16 22/22/22
f 16/16/16 17/17/17 22/22/22
f 22/22/22 17/17/17 23/23/23
f 17/17/17 18/18/18 23/23/23
f 23/23/23 18/18/18 24/24/24
f 18/18/18 19/19/19 24/24/24
f 24/24/24 19/19/19 25/25/25
f 19/19/19 20/20/20 25/25/25
f 26/26/26 21/21/21 27/27/27
f 21/21/21 22/22/22 27/27/27
f 27/27/27 22/22/22 28/28/28
f 22/22/22 23/23/23 28/28/28
f 28/28/28 23/23/23 29/29/29
f 23/23/23 24/24/24 29/29/29
f 29/29/29 24/24/24 30/30/30
f 24/24/24 25/25/25 30/30/30
f 31/31/31 26/26/26 32/32/32
f 26/26/26 27/27/27 32/32/32
f 32/32/32 27/27/27 33/33/33
f 27/27/27 28/28/28 33/33/33
f 33/33/33 28/28/28 34/34/34
f 28/28/28 29/29/29 34/34/34
f 34/34/34 29/29/29 35/35/35
f 29/29/29 30/30/30 35/35/35
f 36/36/36 31/31/31 37/37/37
f 31/31/31 32/32/32 37/37/37
f 37/37/37 32/32/32 38/38/38
f 32/32/32 33/33/33 38/38/38
f 38/38/38 33/33/33 39/39/39
f 33/33/33 34/34/34 39/39/39
f 39/39/39 34/34/34 40/40/40
f 34/34/34 35/35/35 40/40/40
#Quad
#-------
g Quad
v -0.2337332 0.4119623 0.4174756
v 0.01837465 -2.289523 0.5637674
v 0.2862671 0.4259019 -0.2212381
v 0.5383749 -2.275583 -0.07494634

vn -0.7699962 -0.10593 -0.6291938
vn -0.7699962 -0.10593 -0.6291938
vn -0.7699962 -0.10593 -0.6291938
vn -0.7699962 -0.10593 -0.6291938

vt 0 0
vt 1 0
vt 0 1
vt 1 1

usemtl BigTree_bark 3DARK 1LOD
usemap BigTree_bark 3DARK 1LOD
f 41/41/41 44/44/44 42/42/42
f 44/44/44 41/41/41 43/43/43
#Quad
#-------
g Quad
v -0.1801304 0.3237721 -0.2611829
v 0.07197933 -2.37771 -0.1148966
v 0.233227 0.4007055 0.447172
v 0.4853367 -2.300777 0.5934583

vn 0.8599902 0.05277148 -0.5075748
vn 0.8599902 0.05277148 -0.5075748
vn 0.8599902 0.05277148 -0.5075748
vn 0.8599902 0.05277148 -0.5075748

vt 0 0
vt 1 0
vt 0 1
vt 1 1

usemtl BigTree_bark 3DARK 1LOD
usemap BigTree_bark 3DARK 1LOD
f 45/45/45 48/48/48 46/46/46
f 48/48/48 45/45/45 47/47/47
#Quad
#-------
g Quad
v 0.2973379 0.4608651 0.4053672
v 0.5494462 -2.240617 0.5516514
v -0.2448045 0.3769966 -0.2091221
v 0.007303834 -2.324486 -0.06283791

vn -0.7471507 -0.03378153 0.6637957
vn -0.7471507 -0.03378153 0.6637957
vn -0.7471507 -0.03378153 0.6637957
vn -0.7471507 -0.03378153 0.6637957

vt 0 0
vt 1 0
vt 0 1
vt 1 1

usemtl BigTree_bark 3DARK 1LOD
usemap BigTree_bark 3DARK 1LOD
f 49/49/49 52/52/52 50/50/50
f 52/52/52 49/49/49 51/51/51
