#BigTree 2 Branch 2DARK PINE COLUMN.obj
#Thursday, March 11, 2021
#12:28:36 PM
#-------

#BigTree 2 Branch 2DARK PINE COLUMN
#-------
g BigTree 2 Branch 2DARK PINE COLUMN
v 0.001235962 -0.09772873 -0.6468773
v 0.5673523 0.06154633 -0.008213043
v -0.001235962 0.09772873 0.6468773
v -0.6910324 -0.07496643 0.01000595
v 0.001235962 -0.09772873 -0.6468773
v -0.07891083 0.9073009 -0.6121597
v 0.4010849 1.035479 -0.08088303
v -0.08120728 1.06316 0.4047165
v -0.5652237 0.9434166 -0.06905365
v -0.07891083 0.9073009 -0.6121597
v -0.1240997 1.530972 -0.565197
v 0.3110123 1.637074 -0.1304054
v -0.1262436 1.667124 0.3118744
v -0.39785 1.575512 -0.1227989
v -0.1240997 1.530972 -0.565197
v -0.1483459 2.002411 -0.6223373
v 0.2998657 2.108721 -0.1806412
v -0.1507339 2.149151 0.3048553
v -0.4405594 2.049824 -0.1737595
v -0.1483459 2.002411 -0.6223373
v -0.115036 2.5238 -0.6086998
v 0.1835327 2.597605 -0.2952652
v -0.1167679 2.636581 0.05509949
v -0.4459076 2.555061 -0.2913513
v -0.115036 2.5238 -0.6086998
v -0.07134247 2.740406 -0.5586777
v 0.08336639 2.783283 -0.3723183
v -0.07218933 2.806263 -0.1904907
v -0.3046875 2.759691 -0.3707733
v -0.07134247 2.740406 -0.5586777
v -0.06485748 2.794132 -0.4773636
v 0.01133728 2.815388 -0.385025
v -0.0652771 2.827967 -0.2897415
v -0.1883698 2.80348 -0.3843117
v -0.06485748 2.794132 -0.4773636
v -0.06352997 2.822639 -0.3882828
v -0.06352997 2.822639 -0.3882828
v -0.06352997 2.822639 -0.3882828
v -0.06352997 2.822639 -0.3882828
v -0.06352997 2.822639 -0.3882828

vn -0.004495635 0.1729005 0.984929
vn -0.9963861 -0.08424785 0.01082485
vn -0.0007195288 -0.1257787 -0.992058
vn 0.9911709 0.1313696 -0.01795378
vn -0.004495635 0.1729005 0.984929
vn 0.002283674 0.09549569 0.9954273
vn -0.9902074 -0.1383002 0.0190369
vn 0.007264668 -0.2117125 -0.977305
vn 0.9997557 0.02208341 -0.0009145709
vn 0.002283674 0.09549569 0.9954273
vn 0.002312141 0.07593661 0.9971099
vn -0.9893894 -0.143892 0.02009293
vn 0.008102434 -0.2387102 -0.9710571
vn 0.999804 -0.01888154 0.005960061
vn 0.002312141 0.07593661 0.9971099
vn 0.003330425 0.02355869 0.9997169
vn -0.9822117 -0.1857526 0.02750079
vn 0.01005417 -0.3011724 -0.9535167
vn 0.9955963 -0.09186115 0.0186995
vn 0.003330425 0.02355869 0.9997169
vn -0.002541528 0.08629277 0.9962666
vn -0.9923282 -0.1222412 0.01849097
vn 0.006970542 -0.2865448 -0.9580415
vn 0.9967572 -0.07801087 0.0197342
vn -0.002541528 0.08629277 0.9962666
vn -0.001288519 -0.3196389 0.9475386
vn -0.858251 -0.5032575 0.1006839
vn 0.00824123 -0.6733611 -0.7392679
vn 0.8652037 -0.4897425 0.1075869
vn -0.001288519 -0.3196389 0.9475386
vn 0.000542421 -0.7067637 0.7074496
vn -0.541221 -0.8230928 0.1720408
vn 0.006669405 -0.9335634 -0.3583504
vn 0.5484329 -0.8172342 0.1770583
vn 0.000542421 -0.7067637 0.7074496
vn 0.002029534 -0.8929082 0.4502343
vn -0.2502958 -0.9471042 0.2008623
vn 0.004894271 -0.9989254 -0.04608768
vn 0.2572196 -0.9447294 0.2032843
vn 0.002029489 -0.8929082 0.4502343

vt 0.484375 0
vt 0.3671875 0
vt 0.25 0
vt 0.1328125 0
vt 0.015625 0
vt 0.484375 0.5890036
vt 0.3671875 0.5890036
vt 0.25 0.5890036
vt 0.1328125 0.5890036
vt 0.015625 0.5890036
vt 0.484375 0.9302821
vt 0.3671875 0.9302821
vt 0.25 0.9302821
vt 0.1328125 0.9302821
vt 0.015625 0.9302821
vt 0.484375 1.352664
vt 0.3671875 1.352664
vt 0.25 1.352664
vt 0.1328125 1.352664
vt 0.015625 1.352664
vt 0.484375 1.752692
vt 0.3671875 1.752692
vt 0.25 1.752692
vt 0.1328125 1.752692
vt 0.015625 1.752692
vt 0.484375 2.152727
vt 0.3671875 2.152727
vt 0.25 2.152727
vt 0.1328125 2.152727
vt 0.015625 2.152727
vt 0.484375 2.309767
vt 0.3671875 2.309767
vt 0.25 2.309767
vt 0.1328125 2.309767
vt 0.015625 2.309767
vt 0.484375 2.460494
vt 0.3671875 2.460494
vt 0.25 2.460494
vt 0.1328125 2.460494
vt 0.015625 2.460494

usemtl Optimized Bark Material
usemap Optimized Bark Material
f 6/6/6 1/1/1 7/7/7
f 1/1/1 2/2/2 7/7/7
f 7/7/7 2/2/2 8/8/8
f 2/2/2 3/3/3 8/8/8
f 8/8/8 3/3/3 9/9/9
f 3/3/3 4/4/4 9/9/9
f 9/9/9 4/4/4 10/10/10
f 4/4/4 5/5/5 10/10/10
f 11/11/11 6/6/6 12/12/12
f 6/6/6 7/7/7 12/12/12
f 12/12/12 7/7/7 13/13/13
f 7/7/7 8/8/8 13/13/13
f 13/13/13 8/8/8 14/14/14
f 8/8/8 9/9/9 14/14/14
f 14/14/14 9/9/9 15/15/15
f 9/9/9 10/10/10 15/15/15
f 16/16/16 11/11/11 17/17/17
f 11/11/11 12/12/12 17/17/17
f 17/17/17 12/12/12 18/18/18
f 12/12/12 13/13/13 18/18/18
f 18/18/18 13/13/13 19/19/19
f 13/13/13 14/14/14 19/19/19
f 19/19/19 14/14/14 20/20/20
f 14/14/14 15/15/15 20/20/20
f 21/21/21 16/16/16 22/22/22
f 16/16/16 17/17/17 22/22/22
f 22/22/22 17/17/17 23/23/23
f 17/17/17 18/18/18 23/23/23
f 23/23/23 18/18/18 24/24/24
f 18/18/18 19/19/19 24/24/24
f 24/24/24 19/19/19 25/25/25
f 19/19/19 20/20/20 25/25/25
f 26/26/26 21/21/21 27/27/27
f 21/21/21 22/22/22 27/27/27
f 27/27/27 22/22/22 28/28/28
f 22/22/22 23/23/23 28/28/28
f 28/28/28 23/23/23 29/29/29
f 23/23/23 24/24/24 29/29/29
f 29/29/29 24/24/24 30/30/30
f 24/24/24 25/25/25 30/30/30
f 31/31/31 26/26/26 32/32/32
f 26/26/26 27/27/27 32/32/32
f 32/32/32 27/27/27 33/33/33
f 27/27/27 28/28/28 33/33/33
f 33/33/33 28/28/28 34/34/34
f 28/28/28 29/29/29 34/34/34
f 34/34/34 29/29/29 35/35/35
f 29/29/29 30/30/30 35/35/35
f 36/36/36 31/31/31 37/37/37
f 31/31/31 32/32/32 37/37/37
f 37/37/37 32/32/32 38/38/38
f 32/32/32 33/33/33 38/38/38
f 38/38/38 33/33/33 39/39/39
f 33/33/33 34/34/34 39/39/39
f 39/39/39 34/34/34 40/40/40
f 34/34/34 35/35/35 40/40/40
