#BRANCH PINE MESH 1.obj
#Thursday, March 11, 2021
#12:53:44 PM
#-------

#BRANCH PINE MESH 1
#-------
g BRANCH PINE MESH 1
v 0 0 -0.2684593
v 0 0.246685 -3.814697E-06
v 0 0 0.2684555
v 0 -0.2511177 -3.814697E-06
v 0 0 -0.2684593
v -0.1765747 -0.03588104 -0.2279167
v -0.169632 0.1912003 0.02044678
v -0.1590958 -0.03619003 0.2667351
v -0.1659546 -0.2674751 0.02006149
v -0.1765747 -0.03588104 -0.2279167
v -0.9295731 -0.2265701 -0.128746
v -0.8940201 -0.02056503 0.09576797
v -0.8364334 -0.2277679 0.3144989
v -0.8714371 -0.4341125 0.09250259
v -0.9295731 -0.2265701 -0.128746
v -2.52301 -0.3819199 0.1346207
v -2.445404 -0.1835289 0.3424606
v -2.341476 -0.381916 0.5463295
v -2.420113 -0.5698776 0.3378296
v -2.52301 -0.3819199 0.1346207
v -3.773323 -0.2913513 0.4368324
v -3.687645 -0.123661 0.6104622
v -3.600807 -0.290802 0.7852097
v -3.686806 -0.4643211 0.6109085
v -3.773323 -0.2913513 0.4368324
v -5.324593 -0.1164055 0.8303299
v -5.239464 0.01660156 0.9654236
v -5.178871 -0.1157417 1.108665
v -5.265434 -0.253521 0.9718246
v -5.324593 -0.1164055 0.8303299
v -6.796944 0.07057953 1.212067
v -6.721626 0.1700363 1.311142
v -6.685341 0.07113647 1.419792
v -6.761574 -0.03235626 1.320698
v -6.796944 0.07057953 1.212067
v -7.619217 0.1752357 1.430622
v -7.557045 0.2488441 1.505936
v -7.533348 0.1756477 1.588146
v -7.595009 0.09974289 1.514992
v -7.619217 0.1752357 1.430622
v -7.791695 0.1971016 1.505909
v -7.753113 0.2430954 1.551022
v -7.740875 0.1973343 1.598614
v -7.776947 0.1538353 1.556717
v -7.791695 0.1971016 1.505909
v -7.777473 0.1974258 1.536537
v -7.763069 0.2146454 1.553371
v -7.758484 0.1975098 1.571178
v -7.771988 0.1812363 1.555504
v -7.777473 0.1974258 1.536537
v -7.767975 0.1975021 1.554539
v -7.767975 0.1975021 1.554539
v -7.767975 0.1975021 1.554539
v -7.767975 0.1975021 1.554539
v -7.767975 0.1975021 1.554539

vn -0.009775826 -2.884071E-08 0.9999523
vn -0.009775707 -0.9999524 -4.37093E-08
vn -0.009775826 2.650998E-08 -0.9999523
vn -0.009775945 0.9999524 1.311279E-07
vn -0.009775826 -2.884071E-08 0.9999523
vn 0.02219079 -0.0006719946 0.9997535
vn 0.004202934 -0.999991 -0.0007651097
vn -0.02337934 0.0006662718 -0.9997265
vn -0.005391472 0.9999853 0.0007922781
vn 0.02219079 -0.0006719946 0.9997535
vn 0.1459884 -0.002478747 0.9892832
vn 0.04446953 -0.998971 -0.008923405
vn -0.1225121 0.003270971 -0.9924616
vn -0.02099325 0.9997633 0.005745082
vn 0.1459884 -0.002478747 0.9892832
vn 0.3066835 0.001417993 0.9518105
vn 0.07256678 -0.9971504 -0.02062861
vn -0.2399125 0.001413656 -0.9707935
vn -0.00579585 0.999982 0.001645645
vn 0.3066835 0.001417993 0.9518105
vn 0.3341344 0.001646652 0.942524
vn 0.0315907 -0.9994658 -0.008393374
vn -0.273921 -0.00158072 -0.9617509
vn 0.02862272 0.9995317 -0.01083346
vn 0.3341344 0.001646652 0.942524
vn 0.350914 0.0004023894 0.9364076
vn -0.02626676 -0.9995897 0.01143884
vn -0.288423 -0.004469812 -0.9574927
vn 0.08875783 0.9955222 -0.03252383
vn 0.350914 0.0004023894 0.9364076
vn 0.3639762 -0.002204154 0.9314057
vn -0.08045315 -0.9962842 0.03074538
vn -0.2901776 -0.007652689 -0.9569423
vn 0.1542518 0.9864274 -0.05628184
vn 0.3639762 -0.002204154 0.9314057
vn 0.3818111 -0.006089978 0.9242204
vn -0.0997421 -0.9942929 0.03786176
vn -0.2803746 -0.01140686 -0.9598229
vn 0.2011786 0.976796 -0.07346423
vn 0.3818111 -0.006089978 0.9242204
vn 0.8929995 -0.1171695 0.4345382
vn 0.5458325 -0.8159006 -0.1907184
vn 0.4217657 -0.1207919 -0.8986229
vn 0.7689326 0.5779392 -0.2733663
vn 0.8929995 -0.1171695 0.4345382
vn 0.9827423 -0.1510483 0.1067811
vn 0.7726155 -0.5738639 -0.271562
vn 0.6975636 -0.1532404 -0.6999447
vn 0.9076904 0.2695751 -0.3216016
vn 0.9827423 -0.1510483 0.1067811
vn 0.9874586 -0.157519 0.01065909
vn 0.8210719 -0.4923093 -0.2889165
vn 0.7616475 -0.1592537 -0.6281175
vn 0.9280342 0.1755366 -0.3285419
vn 0.9874585 -0.157519 0.0106591

vt 0.484375 0
vt 0.3671875 0
vt 0.25 0
vt 0.1328125 0
vt 0.015625 0
vt 0.484375 0.1442259
vt 0.3671875 0.1442259
vt 0.25 0.1442259
vt 0.1328125 0.1442259
vt 0.015625 0.1442259
vt 0.484375 0.5795069
vt 0.3671875 0.5795069
vt 0.25 0.5795069
vt 0.1328125 0.5795069
vt 0.015625 0.5795069
vt 0.484375 1.184898
vt 0.3671875 1.184898
vt 0.25 1.184898
vt 0.1328125 1.184898
vt 0.015625 1.184898
vt 0.484375 1.935925
vt 0.3671875 1.935925
vt 0.25 1.935925
vt 0.1328125 1.935925
vt 0.015625 1.935925
vt 0.484375 2.830327
vt 0.3671875 2.830327
vt 0.25 2.830327
vt 0.1328125 2.830327
vt 0.015625 2.830327
vt 0.484375 3.975196
vt 0.3671875 3.975196
vt 0.25 3.975196
vt 0.1328125 3.975196
vt 0.015625 3.975196
vt 0.484375 5.116372
vt 0.3671875 5.116372
vt 0.25 5.116372
vt 0.1328125 5.116372
vt 0.015625 5.116372
vt 0.484375 5.661819
vt 0.3671875 5.661819
vt 0.25 5.661819
vt 0.1328125 5.661819
vt 0.015625 5.661819
vt 0.484375 5.676662
vt 0.3671875 5.676662
vt 0.25 5.676662
vt 0.1328125 5.676662
vt 0.015625 5.676662
vt 0.484375 5.684458
vt 0.3671875 5.684458
vt 0.25 5.684458
vt 0.1328125 5.684458
vt 0.015625 5.684458

usemtl Optimized Bark Material
usemap Optimized Bark Material
f 6/6/6 1/1/1 7/7/7
f 1/1/1 2/2/2 7/7/7
f 7/7/7 2/2/2 8/8/8
f 2/2/2 3/3/3 8/8/8
f 8/8/8 3/3/3 9/9/9
f 3/3/3 4/4/4 9/9/9
f 9/9/9 4/4/4 10/10/10
f 4/4/4 5/5/5 10/10/10
f 11/11/11 6/6/6 12/12/12
f 6/6/6 7/7/7 12/12/12
f 12/12/12 7/7/7 13/13/13
f 7/7/7 8/8/8 13/13/13
f 13/13/13 8/8/8 14/14/14
f 8/8/8 9/9/9 14/14/14
f 14/14/14 9/9/9 15/15/15
f 9/9/9 10/10/10 15/15/15
f 16/16/16 11/11/11 17/17/17
f 11/11/11 12/12/12 17/17/17
f 17/17/17 12/12/12 18/18/18
f 12/12/12 13/13/13 18/18/18
f 18/18/18 13/13/13 19/19/19
f 13/13/13 14/14/14 19/19/19
f 19/19/19 14/14/14 20/20/20
f 14/14/14 15/15/15 20/20/20
f 21/21/21 16/16/16 22/22/22
f 16/16/16 17/17/17 22/22/22
f 22/22/22 17/17/17 23/23/23
f 17/17/17 18/18/18 23/23/23
f 23/23/23 18/18/18 24/24/24
f 18/18/18 19/19/19 24/24/24
f 24/24/24 19/19/19 25/25/25
f 19/19/19 20/20/20 25/25/25
f 26/26/26 21/21/21 27/27/27
f 21/21/21 22/22/22 27/27/27
f 27/27/27 22/22/22 28/28/28
f 22/22/22 23/23/23 28/28/28
f 28/28/28 23/23/23 29/29/29
f 23/23/23 24/24/24 29/29/29
f 29/29/29 24/24/24 30/30/30
f 24/24/24 25/25/25 30/30/30
f 31/31/31 26/26/26 32/32/32
f 26/26/26 27/27/27 32/32/32
f 32/32/32 27/27/27 33/33/33
f 27/27/27 28/28/28 33/33/33
f 33/33/33 28/28/28 34/34/34
f 28/28/28 29/29/29 34/34/34
f 34/34/34 29/29/29 35/35/35
f 29/29/29 30/30/30 35/35/35
f 36/36/36 31/31/31 37/37/37
f 31/31/31 32/32/32 37/37/37
f 37/37/37 32/32/32 38/38/38
f 32/32/32 33/33/33 38/38/38
f 38/38/38 33/33/33 39/39/39
f 33/33/33 34/34/34 39/39/39
f 39/39/39 34/34/34 40/40/40
f 34/34/34 35/35/35 40/40/40
f 41/41/41 36/36/36 42/42/42
f 36/36/36 37/37/37 42/42/42
f 42/42/42 37/37/37 43/43/43
f 37/37/37 38/38/38 43/43/43
f 43/43/43 38/38/38 44/44/44
f 38/38/38 39/39/39 44/44/44
f 44/44/44 39/39/39 45/45/45
f 39/39/39 40/40/40 45/45/45
f 46/46/46 41/41/41 47/47/47
f 41/41/41 42/42/42 47/47/47
f 47/47/47 42/42/42 48/48/48
f 42/42/42 43/43/43 48/48/48
f 48/48/48 43/43/43 49/49/49
f 43/43/43 44/44/44 49/49/49
f 49/49/49 44/44/44 50/50/50
f 44/44/44 45/45/45 50/50/50
f 51/51/51 46/46/46 52/52/52
f 46/46/46 47/47/47 52/52/52
f 52/52/52 47/47/47 53/53/53
f 47/47/47 48/48/48 53/53/53
f 53/53/53 48/48/48 54/54/54
f 48/48/48 49/49/49 54/54/54
f 54/54/54 49/49/49 55/55/55
f 49/49/49 50/50/50 55/55/55
