#BRANCH CHERRY MESH.obj
#Thursday, March 11, 2021
#1:29:16 AM
#-------

#BRANCH CHERRY MESH
#-------
g BRANCH CHERRY MESH
v 0 -0.1051102 -0.4020729
v 0.4081116 0 0
v 0 0.1051083 0.402071
v -0.4154358 0 0
v 0 -0.1051102 -0.4020729
v -0.001426697 0.3841305 -0.3652878
v 0.3486404 0.4245262 -0.01575851
v 0.00239563 0.4819279 0.3321228
v -0.353981 0.442276 -0.01320457
v -0.001426697 0.3841305 -0.3652878
v -0.002944946 1.073185 -0.3794308
v 0.3374252 1.039173 -0.04694748
v 0.001914978 1.047678 0.2917919
v -0.3396301 1.081619 -0.03667831
v -0.002944946 1.073185 -0.3794308
v 0.04375458 2.376625 -0.2097015
v 0.3548737 2.25256 0.06231499
v 0.04375458 2.191273 0.3627472
v -0.2510681 2.313938 0.0892334
v 0.04375458 2.376625 -0.2097015
v 0.1320953 2.759983 0.09426308
v 0.4312057 2.647188 0.3542595
v 0.135498 2.581867 0.642334
v -0.1514511 2.694717 0.3786049
v 0.1320953 2.759983 0.09426308
v 0.366745 3.300743 0.9337463
v 0.6181259 3.263611 1.167381
v 0.3788376 3.225088 1.413349
v 0.11866 3.262314 1.179184
v 0.366745 3.300743 0.9337463
v 0.3949432 3.600996 1.134892
v 0.6207123 3.601658 1.349178
v 0.4086685 3.580914 1.573891
v 0.1726913 3.579754 1.359791
v 0.3949432 3.600996 1.134892
v 0.2969894 3.999107 1.030201
v 0.4934464 4.036757 1.21579
v 0.3104858 4.037449 1.418518
v 0.1053467 3.998636 1.230003
v 0.2969894 3.999107 1.030201
v -0.07505798 4.875704 0.3882389
v 0.05930328 4.96257 0.5015717
v -0.07198334 4.998381 0.6431828
v -0.2105789 4.910368 0.5296001
v -0.07505798 4.875704 0.3882389
v -0.203392 5.188932 0.1876583
v -0.1177139 5.257109 0.254427
v -0.2046585 5.288727 0.3462849
v -0.2958603 5.21821 0.2784672
v -0.203392 5.188932 0.1876583
v -0.2045822 5.213993 0.2220554
v -0.1582565 5.250908 0.2581329
v -0.2052765 5.268064 0.3078442
v -0.2546158 5.229849 0.271162
v -0.2045822 5.213993 0.2220554
v -0.2052155 5.241276 0.2635269
v -0.2048035 5.24161 0.2638531
v -0.2052231 5.241764 0.2642994
v -0.2056732 5.241419 0.2639694
v -0.2052155 5.241276 0.2635269

vn -2.76747E-08 0.2403762 0.9706798
vn -0.999929 0.01160675 -0.002727855
vn 2.76747E-08 -0.2171627 -0.9761354
vn 0.999929 0.01160679 -0.002727685
vn -2.76747E-08 0.2403762 0.9706798
vn 0.005239422 0.09684764 0.9952855
vn -0.9998009 0.01966079 0.003403292
vn -0.005624826 -0.1113201 -0.9937687
vn 0.9994155 -0.03413321 -0.001886464
vn 0.005239422 0.09684764 0.9952855
vn 0.006050102 -0.1004013 0.9949287
vn -0.9986647 0.05038397 0.01141578
vn -0.008205016 0.06850912 -0.9976168
vn 0.9965098 -0.08227621 -0.01410382
vn 0.006050102 -0.1004013 0.9949287
vn -0.003927236 -0.3895446 0.9209992
vn -0.9968868 0.07363193 0.02819605
vn -0.003927224 0.3252447 -0.9456217
vn 0.9890324 -0.1379319 -0.05281849
vn -0.003927236 -0.3895446 0.9209992
vn 0.002188628 -0.3928964 0.9195802
vn -0.9983965 0.05055148 0.0254755
vn -0.009126699 0.3238254 -0.9460728
vn 0.9914584 -0.1196224 -0.05196809
vn 0.002188628 -0.3928964 0.9195802
vn 0.02416794 -0.2550028 0.9666383
vn -0.998494 -0.05315667 0.01356898
vn -0.02428677 0.1563663 -0.9874005
vn 0.9983752 -0.04547981 -0.03433115
vn 0.02416794 -0.2550028 0.9666383
vn 0.03372072 -0.1517999 0.9878359
vn -0.9934208 -0.1127243 0.02020963
vn -0.02765537 0.03287876 -0.9990767
vn 0.9994861 -0.006196866 -0.03145035
vn 0.03372072 -0.1517999 0.9878359
vn 0.03960031 0.01264246 0.9991356
vn -0.9871918 -0.1535334 0.04335739
vn -0.02923531 -0.1075491 -0.9937698
vn 0.9975568 0.05862683 -0.03799158
vn 0.03960031 0.01264246 0.9991356
vn 0.02140989 0.3891449 0.9209277
vn -0.9609941 -0.2451223 0.1280835
vn -0.0005923866 -0.4676709 -0.8839025
vn 0.9818116 0.1665964 -0.09105817
vn 0.02140989 0.3891449 0.9209277
vn 0.1581029 -0.06243183 0.985447
vn -0.6028004 -0.6746864 0.425946
vn 0.1688927 -0.9190456 -0.3561327
vn 0.929796 -0.3067911 0.2033684
vn 0.1581029 -0.06243183 0.985447
vn 0.2372261 -0.4737906 0.848084
vn -0.1999122 -0.8260711 0.5269172
vn 0.2435717 -0.9667715 0.07762497
vn 0.6807099 -0.614491 0.3987917
vn 0.2372261 -0.4737906 0.848084
vn 0.2570982 -0.6209734 0.7404678
vn -0.01719094 -0.8420945 0.539056
vn 0.261001 -0.9304442 0.2572004
vn 0.5352902 -0.7093231 0.4586123
vn 0.2570982 -0.6209734 0.7404678

vt 0.484375 0
vt 0.3671875 0
vt 0.25 0
vt 0.1328125 0
vt 0.015625 0
vt 0.484375 0.2770356
vt 0.3671875 0.2770356
vt 0.25 0.2770356
vt 0.1328125 0.2770356
vt 0.015625 0.2770356
vt 0.484375 0.5571303
vt 0.3671875 0.5571303
vt 0.25 0.5571303
vt 0.1328125 0.5571303
vt 0.015625 0.5571303
vt 0.484375 1.153513
vt 0.3671875 1.153513
vt 0.25 1.153513
vt 0.1328125 1.153513
vt 0.015625 1.153513
vt 0.484375 1.400552
vt 0.3671875 1.400552
vt 0.25 1.400552
vt 0.1328125 1.400552
vt 0.015625 1.400552
vt 0.484375 1.95
vt 0.3671875 1.95
vt 0.25 1.95
vt 0.1328125 1.95
vt 0.015625 1.95
vt 0.484375 2.262465
vt 0.3671875 2.262465
vt 0.25 2.262465
vt 0.1328125 2.262465
vt 0.015625 2.262465
vt 0.484375 2.684975
vt 0.3671875 2.684975
vt 0.25 2.684975
vt 0.1328125 2.684975
vt 0.015625 2.684975
vt 0.484375 3.739863
vt 0.3671875 3.739863
vt 0.25 3.739863
vt 0.1328125 3.739863
vt 0.015625 3.739863
vt 0.484375 4.494236
vt 0.3671875 4.494236
vt 0.25 4.494236
vt 0.1328125 4.494236
vt 0.015625 4.494236
vt 0.484375 4.50906
vt 0.3671875 4.50906
vt 0.25 4.50906
vt 0.1328125 4.50906
vt 0.015625 4.50906
vt 0.484375 4.523005
vt 0.3671875 4.523005
vt 0.25 4.523005
vt 0.1328125 4.523005
vt 0.015625 4.523005

usemtl Optimized Bark Material
usemap Optimized Bark Material
f 6/6/6 1/1/1 7/7/7
f 1/1/1 2/2/2 7/7/7
f 7/7/7 2/2/2 8/8/8
f 2/2/2 3/3/3 8/8/8
f 8/8/8 3/3/3 9/9/9
f 3/3/3 4/4/4 9/9/9
f 9/9/9 4/4/4 10/10/10
f 4/4/4 5/5/5 10/10/10
f 11/11/11 6/6/6 12/12/12
f 6/6/6 7/7/7 12/12/12
f 12/12/12 7/7/7 13/13/13
f 7/7/7 8/8/8 13/13/13
f 13/13/13 8/8/8 14/14/14
f 8/8/8 9/9/9 14/14/14
f 14/14/14 9/9/9 15/15/15
f 9/9/9 10/10/10 15/15/15
f 16/16/16 11/11/11 17/17/17
f 11/11/11 12/12/12 17/17/17
f 17/17/17 12/12/12 18/18/18
f 12/12/12 13/13/13 18/18/18
f 18/18/18 13/13/13 19/19/19
f 13/13/13 14/14/14 19/19/19
f 19/19/19 14/14/14 20/20/20
f 14/14/14 15/15/15 20/20/20
f 21/21/21 16/16/16 22/22/22
f 16/16/16 17/17/17 22/22/22
f 22/22/22 17/17/17 23/23/23
f 17/17/17 18/18/18 23/23/23
f 23/23/23 18/18/18 24/24/24
f 18/18/18 19/19/19 24/24/24
f 24/24/24 19/19/19 25/25/25
f 19/19/19 20/20/20 25/25/25
f 26/26/26 21/21/21 27/27/27
f 21/21/21 22/22/22 27/27/27
f 27/27/27 22/22/22 28/28/28
f 22/22/22 23/23/23 28/28/28
f 28/28/28 23/23/23 29/29/29
f 23/23/23 24/24/24 29/29/29
f 29/29/29 24/24/24 30/30/30
f 24/24/24 25/25/25 30/30/30
f 31/31/31 26/26/26 32/32/32
f 26/26/26 27/27/27 32/32/32
f 32/32/32 27/27/27 33/33/33
f 27/27/27 28/28/28 33/33/33
f 33/33/33 28/28/28 34/34/34
f 28/28/28 29/29/29 34/34/34
f 34/34/34 29/29/29 35/35/35
f 29/29/29 30/30/30 35/35/35
f 36/36/36 31/31/31 37/37/37
f 31/31/31 32/32/32 37/37/37
f 37/37/37 32/32/32 38/38/38
f 32/32/32 33/33/33 38/38/38
f 38/38/38 33/33/33 39/39/39
f 33/33/33 34/34/34 39/39/39
f 39/39/39 34/34/34 40/40/40
f 34/34/34 35/35/35 40/40/40
f 41/41/41 36/36/36 42/42/42
f 36/36/36 37/37/37 42/42/42
f 42/42/42 37/37/37 43/43/43
f 37/37/37 38/38/38 43/43/43
f 43/43/43 38/38/38 44/44/44
f 38/38/38 39/39/39 44/44/44
f 44/44/44 39/39/39 45/45/45
f 39/39/39 40/40/40 45/45/45
f 46/46/46 41/41/41 47/47/47
f 41/41/41 42/42/42 47/47/47
f 47/47/47 42/42/42 48/48/48
f 42/42/42 43/43/43 48/48/48
f 48/48/48 43/43/43 49/49/49
f 43/43/43 44/44/44 49/49/49
f 49/49/49 44/44/44 50/50/50
f 44/44/44 45/45/45 50/50/50
f 51/51/51 46/46/46 52/52/52
f 46/46/46 47/47/47 52/52/52
f 52/52/52 47/47/47 53/53/53
f 47/47/47 48/48/48 53/53/53
f 53/53/53 48/48/48 54/54/54
f 48/48/48 49/49/49 54/54/54
f 54/54/54 49/49/49 55/55/55
f 49/49/49 50/50/50 55/55/55
f 56/56/56 51/51/51 57/57/57
f 51/51/51 52/52/52 57/57/57
f 57/57/57 52/52/52 58/58/58
f 52/52/52 53/53/53 58/58/58
f 58/58/58 53/53/53 59/59/59
f 53/53/53 54/54/54 59/59/59
f 59/59/59 54/54/54 60/60/60
f 54/54/54 55/55/55 60/60/60
